<svg xmlns="http://www.w3.org/2000/svg" viewBox="0 0 1341.78 282.81"><defs></defs><g id="_Слой_1-2" data-name="Слой 1"><g><path class="cls-1" d="M280.45,205.72l-96.15,.15-34.29,62.87H24.09l13.36-23.44c18.67-32.86,112.27-197.23,120.31-207.93,16.63-22.11,46.32-22.75,49.64-22.75l186.45-.2-49.07,89.34h-9.27c-27.3,.02-78.59,.1-87.05,.15-2.71,1.35-7.4,6.1-12.72,12.84l94.06,.12-49.34,88.85Z"></path><polygon class="cls-1" points="610.58 14.27 471.21 267.68 379.38 267.97 383.91 245.64 370.92 268.76 269.53 268.76 415.94 14.25 506.06 14.25 501.27 42.31 517.06 14.2 610.58 14.27"></polygon><path class="cls-1" d="M731.95,227.46c-15.72,28.58-29.37,41.3-44.35,41.3h-201.16l13.36-23.44c35.13-61.67,128.06-221.82,128.99-223.42l4.55-7.82h162.59c11.24,0,21.4,5.78,27.13,15.45,5.71,9.69,5.9,21.38,.49,31.21l-91.6,166.73Z"></path><path class="cls-1" d="M871.91,14.05l-147.07,254.76h88.45c15.45,0,23.05-13.46,25.9-18.5l.42-.71c7.97-13.65,18.57-32.2,24.5-42.65l20.22,.02c4.38,15.08,11.93,40.93,15.28,51.07l3.57,10.77h70.5v-15.72c0-9.03-.07-18.08-.12-26.84-.07-6.54-.1-12.89-.12-19.09h28.31l4.5-8.02c1.72-3.05,86.19-155.07,89.78-161.54l12.94-23.32-237.05-.25Zm94.06,85.6l-19.01,34.14c-5.53,.02-11.41,.05-17.59,.05-7.08,0-13.92-.02-20.07-.05l18.99-34.41c11.04,.05,25.39,.15,37.68,.27Z"></path><path class="cls-1" d="M1175.55,103.81c-1.77,3.05-3.42,5.93-4.97,8.63l89.64,.84-89.76,155.46h-185.96l48.14-83.39,37.19-.25-36.85-.32,94.68-164.14,.91-1.08c4.7-5.56,9.05-5.56,18.55-5.56h170.42l-51.61,89.39-9,.07c-.44,0-42.58,.32-81.37,.34Z"></path><g><path d="M393.85,14.42l-49.07,89.34h-9.27c-27.3,.02-78.59,.1-87.05,.15-2.71,1.35-7.4,6.1-12.72,12.84l94.06,.12-49.34,88.85-96.15,.15-34.29,62.87H24.09l13.36-23.44c18.67-32.86,112.27-197.23,120.31-207.93,16.63-22.11,46.32-22.75,49.64-22.75l186.45-.2M417.52,.39l-23.69,.03-186.45,.2c-2.66,0-12.27,.26-23.77,3.66-15.53,4.58-28.34,13.12-37.04,24.68-9.21,12.25-109.85,189.28-121.29,209.43l-13.35,23.43L0,282.74H158.32l3.98-7.3,30.32-55.59,87.86-.13h8.22s3.99-7.2,3.99-7.2l49.34-88.85,3.28-5.91h7.74l3.99-7.26,49.07-89.34L417.52,.39h0Z"></path><path d="M367.28,30.15l-31.81,57.91s-83.36,.09-88.25,.16c-16.03,.23-40.76,44.18-40.76,44.18l96.68,.13-31.93,57.51-96.23,.15-34.28,62.86H51.09S162.46,57.24,170.3,46.8c12.17-16.2,35.42-16.5,37.1-16.5,.06,0,.1,0,.1,0l159.78-.16m23.68-14.02l-23.69,.02-159.78,.16h-.08c-3.24,0-32.16,.62-48.29,22.08-7.97,10.61-101.52,174.9-120.19,207.73l-11.9,20.92h121.99l3.98-7.3,30.31-55.58,87.93-.14h8.23s3.99-7.2,3.99-7.2l31.93-57.51,11.53-20.76-23.75-.03-70.86-.09c9.52-12.75,14.64-15.68,15.78-16.22,7.35-.05,59.71-.12,87.41-.15h8.27s3.98-7.26,3.98-7.26l31.81-57.91,11.41-20.76h0Z"></path><path d="M795.93,14.07c11.24,0,21.4,5.78,27.13,15.45,5.71,9.69,5.9,21.38,.49,31.21l-91.6,166.73c-15.72,28.58-29.37,41.3-44.35,41.3h-201.16l13.36-23.44c35.13-61.67,128.06-221.82,128.99-223.42l4.55-7.82h162.59m-167.36,175.58h22.68l51.61-89.64h-22.83l-51.46,89.64M795.93,.07h-170.65l-4.05,6.96-4.55,7.82c-.66,1.13-93.34,160.84-129.06,223.53l-13.36,23.44-11.93,20.93h225.25c26.52,0,44.19-25.95,56.62-48.55l91.61-166.73c7.81-14.2,7.55-31.05-.7-45.06C826.82,8.41,812.17,.07,795.93,.07h0Z"></path><path d="M795.93,29.77c12.03,0,19.63,12.89,13.85,23.42l-91.6,166.73c-6.49,11.86-19.43,33.16-30.58,33.16h-174.15c35.47-62.33,128.94-223.3,128.94-223.3h153.54m-194.47,175.58h58.86l69.71-121.02h-59.08l-69.49,121.02M795.93,15.77h-161.6l-4.05,6.97c-.93,1.61-93.91,161.74-129,223.41l-11.91,20.92h198.23c14.32,0,27.54-12.47,42.85-40.43l91.59-166.71c5.13-9.34,4.95-20.38-.47-29.54-5.42-9.16-15-14.62-25.65-14.62h0Zm-116.88,82.56h26.76l-53.58,93.02h-26.59l53.41-93.02h0Z"></path><path d="M1317.53,14l-51.61,89.39-9,.07c-.44,0-42.58,.32-81.37,.34-1.77,3.05-3.42,5.93-4.97,8.63l89.64,.84-89.76,155.46h-185.96l48.14-83.39,37.19-.25-36.85-.32,94.68-164.14,.91-1.08c4.7-5.56,9.05-5.56,18.55-5.56h170.42m24.25-14h-194.66c-10.46,0-20.35,0-29.24,10.52l-.93,1.11-.8,.95-.62,1.07-90.99,157.76h-.01s-4.01,6.95-4.01,6.95l-48.14,83.39-12.12,21h218.29l4.04-7,89.76-155.46,12-20.78h0s45.32-78.5,45.32-78.5l12.12-21h0Z"></path><path d="M1290.34,29.69l-33.53,58.07s-48.93,.36-90.34,.36c-13.39,23.12-22.79,39.78-22.79,39.78l89.48,.82-71.77,124.31h-149.71l30.05-52.05,90.8-.6,17.19-30.31-89.7-.76,80.53-139.6s.01-.02,52.46-.02h97.32m24.25-14h-121.57c-26.23,0-39.35,0-45.91,0-3.29,0-4.94,0-5.76,0-1.96,0-7.17,.01-11.34,4.79l-.9,1.03-.68,1.18-80.53,139.6-11.99,20.79,24,.2,65.9,.56-1.46,2.57-82.7,.55-8.02,.05-4.01,6.95-30.05,52.05-12.12,21h182.04l4.04-7,71.77-124.31,12-20.78-23.99-.22-65.64-.6c2.09-3.65,4.41-7.68,6.9-12,39.07-.04,81.9-.36,82.36-.36l8.01-.06,4.01-6.94,33.53-58.07,12.12-21h0Z"></path><path d="M871.91,14.05l237.05,.25-12.94,23.32c-3.59,6.47-88.06,158.48-89.78,161.54l-4.5,8.02h-28.31c.02,6.2,.05,12.55,.12,19.09,.05,8.76,.12,17.81,.12,26.84v15.72h-70.5l-3.57-10.77c-3.35-10.13-10.9-35.99-15.28-51.07l-20.22-.02c-5.93,10.45-16.53,29-24.5,42.65l-.42,.71c-2.85,5.04-10.45,18.5-25.9,18.5h-88.45L871.91,14.05m57.46,119.79c6.17,0,12.05-.02,17.59-.05l19.01-34.14c-12.3-.12-26.64-.22-37.68-.27l-18.99,34.41c6.15,.02,12.99,.05,20.07,.05M863.83,.04l-4.05,7.01-147.07,254.76-12.12,21h112.7c10.18,0,19.62-3.88,27.32-11.21,5.64-5.37,9.05-11.36,10.71-14.3l.37-.62c6.14-10.53,14.23-24.61,20.56-35.72h1.57c6.11,20.92,10.3,34.85,12.49,41.47l3.57,10.79,3.18,9.6h94.61v-29.72c0-6.95-.04-13.95-.09-20.71l-.04-6.2v-.04s0-.04,0-.04c-.02-1.65-.03-3.3-.05-4.93h22.43l4.01-7.15,4.5-8.02c1.84-3.26,88.98-160.09,89.82-161.59l12.94-23.32,11.52-20.77-23.75-.02L871.92,.05h-8.09Zm69.16,119.79l3.54-6.42c1.89,.01,3.8,.02,5.73,.04l-3.55,6.37c-1.9,0-3.8,.01-5.72,.01h0Z"></path><path d="M880.99,29.77l201.31,.2s-88.04,158.44-89.76,161.49h-34.81c-.12,19.58,.25,40.51,.25,61.64h-43.46c-4.72-14.24-18.35-61.84-18.35-61.84h-41.18s-17.22,30.35-28.95,50.43c-1.87,3.22-5.9,11.41-12.74,11.41h-61.25L880.99,29.77m49.35,119.77c8.48,0,17.34-.03,25.87-.1l36.33-65.26s-52.07-.52-73.52-.52l-36.18,65.63s22.07,.25,47.5,.25M872.91,15.76l-4.05,7.01-128.94,223.33-12.12,21h85.5c14.47,0,21.72-12.84,24.45-17.68,.15-.26,.28-.5,.4-.71,8.19-14.01,19.16-33.22,24.99-43.45h22.49c4.3,14.88,12.16,41.86,15.6,52.25l3.18,9.59h67.57v-14c0-9.24-.07-18.5-.14-27.46-.05-6.93-.1-13.63-.12-20.18h29l4.02-7.12c1.73-3.06,86.21-155.1,89.8-161.57l11.54-20.78-23.77-.02-201.31-.2h-8.09Zm33.53,119.7l20.84-37.79c12.04,.05,28.3,.17,41.57,.28l-20.89,37.53c-5.53,.03-11.42,.04-17.61,.04-8.57,0-16.78-.03-23.9-.07h0Z"></path><g><path d="M517.06,14.2l93.52,.07-139.37,253.41-91.82,.3,4.53-22.34-12.99,23.12h-101.39L415.94,14.25h90.13l-4.8,28.07,15.79-28.12M508.87,.19l-.03,.06h-101l-4.04,7.02-146.41,254.52-12.07,20.98h133.79l.44-.79,91.7-.29,8.25-.03,3.97-7.23L622.85,21.02,634.25,.29l-23.66-.02-93.52-.07h-8.2Z"></path><path d="M526.23,29.89l57.81,.05-122.13,222.07-63.32,.2,20.64-101.57-57.49,102.43h-65.06L425.01,29.94h62.43l-17.07,99.45,55.86-99.5m-8.19-14.01l-4.02,7.15-16.12,28.72,3.34-19.45,2.81-16.37h-87.14l-4.04,7.02-128.33,223.13-12.07,20.98h97.46l4.01-7.15,13.77-24.54-2.85,14.04-3.42,16.84,17.19-.05,63.32-.2,8.25-.03,3.98-7.23,122.13-222.07,11.4-20.73-23.65-.02-57.81-.05h-8.2Z"></path></g></g></g></g></svg> 