<svg xmlns="http://www.w3.org/2000/svg" xmlns:xlink="http://www.w3.org/1999/xlink" width="32px" height="9px" viewBox="0 0 30 9" version="1.1">
<defs>
<linearGradient id="linear0" gradientUnits="userSpaceOnUse" x1="34.174198" y1="3" x2="48.5" y2="3" gradientTransform="matrix(0.632653,0,0,0.642857,0,0)">
<stop offset="0" style="stop-color:rgb(0%,70.588235%,90.196078%);stop-opacity:1;"/>
<stop offset="1" style="stop-color:rgb(3.137255%,54.901961%,79.607843%);stop-opacity:1;"/>
</linearGradient>
</defs>
<g id="surface1">
<path style=" stroke:none;fill-rule:evenodd;fill:url(#linear0);" d="M 27.519531 0 L 21.636719 0 C 21.953125 1.992188 23.851562 3.855469 25.9375 3.855469 L 30.621094 3.855469 C 30.683594 3.664062 30.683594 3.40625 30.683594 3.214844 C 30.683594 1.414062 29.292969 0 27.519531 0 Z M 27.519531 0 "/>
<path style=" stroke:none;fill-rule:evenodd;fill:rgb(30.19608%,70.588237%,37.254903%);fill-opacity:1;" d="M 22.144531 4.179688 L 22.144531 9 L 24.988281 9 L 24.988281 6.429688 L 27.519531 6.429688 C 28.914062 6.429688 30.113281 5.464844 30.492188 4.179688 Z M 22.144531 4.179688 "/>
<path style=" stroke:none;fill-rule:evenodd;fill:rgb(30.19608%,70.588237%,37.254903%);fill-opacity:1;" d="M 12.019531 0 L 12.019531 9 L 14.550781 9 C 14.550781 9 15.183594 9 15.5 8.355469 C 17.207031 4.886719 17.714844 3.855469 17.714844 3.855469 L 18.03125 3.855469 L 18.03125 9 L 20.878906 9 L 20.878906 0 L 18.347656 0 C 18.347656 0 17.714844 0.0625 17.398438 0.644531 C 15.941406 3.601562 15.183594 5.144531 15.183594 5.144531 L 14.867188 5.144531 L 14.867188 0 Z M 12.019531 0 "/>
<path style=" stroke:none;fill-rule:evenodd;fill:rgb(30.19608%,70.588237%,37.254903%);fill-opacity:1;" d="M 0 9 L 0 0 L 2.847656 0 C 2.847656 0 3.667969 0 4.113281 1.285156 C 5.25 4.691406 5.378906 5.144531 5.378906 5.144531 C 5.378906 5.144531 5.628906 4.308594 6.644531 1.285156 C 7.085938 0 7.90625 0 7.90625 0 L 10.753906 0 L 10.753906 9 L 7.90625 9 L 7.90625 4.179688 L 7.59375 4.179688 L 6.011719 9 L 4.746094 9 L 3.164062 4.179688 L 2.847656 4.179688 L 2.847656 9 Z M 0 9 "/>
</g>
</svg>
