
<svg xmlns="http://www.w3.org/2000/svg" xmlns:xlink="http://www.w3.org/1999/xlink" width="30px" height="11px" viewBox="0 0 30 11" version="1.1">
<defs>
<clipPath id="clip1">
  <path d="M 23 1 L 27.703125 1 L 27.703125 9 L 23 9 Z M 23 1 "/>
</clipPath>
</defs>
<g id="surface1">
<path style=" stroke:none;fill-rule:nonzero;fill:rgb(0%,0%,0%);fill-opacity:1;" d="M 17.667969 1.136719 L 17.667969 8.667969 L 16.359375 8.667969 L 16.359375 2.15625 L 14.019531 2.15625 L 14.019531 8.667969 L 12.707031 8.667969 L 12.707031 1.136719 Z M 17.667969 1.136719 "/>
<path style=" stroke:none;fill-rule:nonzero;fill:rgb(0%,0%,0%);fill-opacity:1;" d="M 19.863281 8.773438 C 19.285156 8.773438 18.84375 8.664062 18.53125 8.4375 L 18.53125 7.386719 C 18.699219 7.503906 18.878906 7.59375 19.074219 7.660156 C 19.273438 7.722656 19.511719 7.757812 19.789062 7.757812 C 20.199219 7.757812 20.511719 7.636719 20.71875 7.398438 C 20.929688 7.152344 21.058594 6.816406 21.109375 6.390625 L 19.214844 6.390625 L 19.214844 5.375 L 21.097656 5.375 C 20.976562 4.542969 20.550781 4.128906 19.820312 4.128906 C 19.597656 4.128906 19.371094 4.164062 19.148438 4.234375 C 18.933594 4.308594 18.757812 4.382812 18.628906 4.464844 L 18.628906 3.371094 C 18.765625 3.296875 18.949219 3.234375 19.179688 3.183594 C 19.414062 3.132812 19.691406 3.109375 20.015625 3.109375 C 20.421875 3.109375 20.773438 3.179688 21.078125 3.324219 C 21.386719 3.464844 21.644531 3.65625 21.847656 3.910156 C 22.054688 4.15625 22.210938 4.457031 22.3125 4.808594 C 22.421875 5.15625 22.472656 5.535156 22.472656 5.949219 C 22.472656 6.863281 22.257812 7.566406 21.824219 8.050781 C 21.398438 8.53125 20.746094 8.773438 19.863281 8.773438 Z M 19.863281 8.773438 "/>
<g clip-path="url(#clip1)" clip-rule="nonzero">
<path style=" stroke:none;fill-rule:nonzero;fill:rgb(0%,0%,0%);fill-opacity:1;" d="M 25.539062 2.503906 C 25.019531 2.503906 24.625 2.371094 24.359375 2.113281 C 24.097656 1.851562 23.96875 1.527344 23.96875 1.136719 L 25.050781 1.136719 C 25.050781 1.324219 25.09375 1.460938 25.179688 1.550781 C 25.273438 1.636719 25.394531 1.679688 25.539062 1.679688 C 25.675781 1.679688 25.785156 1.636719 25.863281 1.550781 C 25.941406 1.457031 25.984375 1.316406 25.984375 1.136719 L 27.066406 1.136719 C 27.066406 1.324219 27.035156 1.503906 26.96875 1.667969 C 26.902344 1.835938 26.804688 1.980469 26.675781 2.101562 C 26.554688 2.222656 26.394531 2.320312 26.199219 2.394531 C 26.011719 2.464844 25.792969 2.503906 25.539062 2.503906 Z M 24.585938 3.21875 L 24.585938 6.597656 L 26.554688 3.21875 L 27.703125 3.21875 L 27.703125 8.667969 L 26.460938 8.667969 L 26.460938 5.296875 L 24.488281 8.667969 L 23.339844 8.667969 L 23.339844 3.21875 Z M 24.585938 3.21875 "/>
</g>
<path style=" stroke:none;fill-rule:nonzero;fill:rgb(98.823529%,24.705882%,11.372549%);fill-opacity:1;" d="M 5.015625 0 L 5 0 C 2.238281 0 0 2.238281 0 5 C 0 7.761719 2.238281 10 5 10 L 5.015625 10 C 7.773438 10 10.015625 7.761719 10.015625 5 C 10.015625 2.238281 7.773438 0 5.015625 0 Z M 5.015625 0 "/>
<path style=" stroke:none;fill-rule:nonzero;fill:rgb(100%,100%,100%);fill-opacity:1;" d="M 5.710938 8.003906 L 6.757812 8.003906 L 6.757812 2.003906 L 5.238281 2.003906 C 3.707031 2.003906 2.902344 2.789062 2.902344 3.949219 C 2.902344 4.871094 3.34375 5.414062 4.128906 5.976562 L 2.765625 8.003906 L 3.898438 8.003906 L 5.417969 5.734375 L 4.890625 5.378906 C 4.25 4.949219 3.941406 4.613281 3.941406 3.886719 C 3.941406 3.25 4.390625 2.816406 5.246094 2.816406 L 5.710938 2.816406 Z M 5.710938 8.003906 "/>
</g>
</svg>
