<svg xmlns="http://www.w3.org/2000/svg" xmlns:xlink="http://www.w3.org/1999/xlink" viewBox="0 0 157 36" version="1.1">
<defs>
<clipPath id="clip1">
  <path d="M 0.480469 1 L 156.480469 1 L 156.480469 35 L 0.480469 35 Z M 0.480469 1 "/>
</clipPath>
</defs>
<g id="surface1">
<g clip-path="url(#clip1)" clip-rule="nonzero">
<path style=" stroke:none;fill-rule:nonzero;fill:rgb(100%,100%,100%);fill-opacity:1;" d="M 141.792969 11.292969 L 141.503906 11.386719 C 140.367188 9.042969 138.75 7.175781 136.644531 5.789062 C 134.570312 4.402344 131.964844 3.707031 128.820312 3.707031 C 127.074219 3.707031 125.40625 4.0625 123.816406 4.769531 C 122.230469 5.449219 120.839844 6.421875 119.640625 7.683594 C 118.472656 8.917969 117.535156 10.414062 116.820312 12.171875 C 116.109375 13.929688 115.753906 15.871094 115.753906 18 C 115.753906 20.128906 116.109375 22.070312 116.820312 23.828125 C 117.535156 25.585938 118.472656 27.097656 119.640625 28.359375 C 120.839844 29.59375 122.230469 30.550781 123.816406 31.226562 C 125.40625 31.90625 127.074219 32.246094 128.820312 32.246094 C 131.929688 32.246094 134.457031 31.78125 136.402344 30.859375 C 138.378906 29.902344 140.046875 28.453125 141.40625 26.511719 L 141.695312 26.601562 L 141.601562 29.5625 C 140.855469 30.300781 139.996094 30.964844 139.023438 31.550781 C 138.054688 32.105469 137 32.585938 135.867188 32.984375 C 134.765625 33.355469 133.617188 33.632812 132.417969 33.816406 C 131.21875 34.035156 130.019531 34.140625 128.820312 34.140625 C 126.328125 34.140625 123.949219 33.757812 121.679688 32.984375 C 119.414062 32.214844 117.421875 31.136719 115.703125 29.746094 C 113.988281 28.328125 112.628906 26.632812 111.625 24.660156 C 110.621094 22.65625 110.117188 20.4375 110.117188 18 C 110.117188 15.5625 110.621094 13.359375 111.625 11.386719 C 112.628906 9.382812 113.988281 7.667969 115.703125 6.25 C 117.421875 4.832031 119.414062 3.753906 121.679688 3.015625 C 123.949219 2.242188 126.328125 1.855469 128.820312 1.855469 C 130.019531 1.855469 131.21875 1.949219 132.417969 2.136719 C 133.617188 2.320312 134.765625 2.613281 135.867188 3.015625 C 137 3.382812 138.054688 3.863281 139.023438 4.449219 C 139.996094 5.003906 140.855469 5.648438 141.601562 6.390625 Z M 34.734375 20.128906 C 34.378906 20.28125 34.039062 20.480469 33.714844 20.730469 C 33.390625 20.976562 33.226562 21.316406 33.226562 21.746094 L 33.226562 27.4375 C 31.671875 29.5625 29.679688 31.214844 27.25 32.386719 C 24.824219 33.558594 22.132812 34.144531 19.1875 34.144531 C 16.691406 34.144531 14.3125 33.757812 12.042969 32.984375 C 9.777344 32.214844 7.785156 31.136719 6.070312 29.75 C 4.351562 28.332031 2.992188 26.632812 1.988281 24.660156 C 0.984375 22.65625 0.480469 20.4375 0.480469 18 C 0.480469 15.5625 0.984375 13.359375 1.988281 11.386719 C 2.992188 9.382812 4.351562 7.671875 6.070312 6.253906 C 7.785156 4.832031 9.777344 3.753906 12.042969 3.015625 C 14.3125 2.242188 16.691406 1.859375 19.1875 1.859375 C 20.386719 1.859375 21.582031 1.949219 22.78125 2.136719 C 23.980469 2.320312 25.128906 2.613281 26.230469 3.015625 C 27.363281 3.382812 28.417969 3.863281 29.390625 4.449219 C 30.359375 5.003906 31.21875 5.652344 31.964844 6.390625 L 32.160156 11.292969 L 31.867188 11.386719 C 30.734375 9.042969 29.113281 7.175781 27.007812 5.789062 C 24.9375 4.402344 22.328125 3.707031 19.1875 3.707031 C 17.4375 3.707031 15.769531 4.0625 14.183594 4.773438 C 12.59375 5.449219 11.203125 6.421875 10.003906 7.6875 C 8.839844 8.917969 7.898438 10.414062 7.1875 12.171875 C 6.472656 13.929688 6.117188 15.871094 6.117188 18 C 6.117188 20.097656 6.457031 22.023438 7.136719 23.78125 C 7.851562 25.539062 8.789062 27.050781 9.957031 28.3125 C 11.15625 29.546875 12.546875 30.519531 14.132812 31.226562 C 15.722656 31.90625 17.40625 32.246094 19.1875 32.246094 C 22.554688 32.246094 25.4375 31.628906 27.835938 30.394531 L 27.835938 21.746094 C 27.835938 21.316406 27.65625 20.976562 27.300781 20.730469 C 26.976562 20.480469 26.652344 20.28125 26.328125 20.128906 L 26.375 19.894531 C 26.535156 19.925781 26.828125 19.957031 27.246094 19.988281 C 27.667969 20.015625 28.105469 20.046875 28.558594 20.082031 L 32.738281 20.082031 C 33.125 20.050781 33.5 20.023438 33.855469 19.988281 C 34.210938 19.960938 34.488281 19.929688 34.679688 19.894531 Z M 69.921875 2.828125 C 69.597656 2.984375 69.277344 3.183594 68.953125 3.429688 C 68.628906 3.675781 68.449219 4.140625 68.417969 4.816406 C 68.386719 5.558594 68.355469 6.5 68.320312 7.640625 C 68.320312 8.75 68.304688 10.015625 68.277344 11.433594 C 68.277344 12.851562 68.261719 14.394531 68.230469 16.058594 L 68.230469 21.238281 C 68.203125 23.242188 67.941406 24.953125 67.453125 26.371094 C 66.96875 27.789062 66.320312 28.976562 65.511719 29.933594 C 64.734375 30.890625 63.859375 31.644531 62.886719 32.199219 C 61.949219 32.753906 61.007812 33.171875 60.070312 33.449219 C 59.164062 33.757812 58.304688 33.941406 57.496094 34.003906 C 56.683594 34.097656 56.054688 34.144531 55.601562 34.144531 C 53.753906 34.144531 51.972656 33.910156 50.253906 33.449219 C 48.539062 33.015625 47.03125 32.308594 45.738281 31.320312 C 44.441406 30.335938 43.40625 29.054688 42.628906 27.480469 C 41.851562 25.910156 41.460938 23.996094 41.460938 21.746094 L 41.460938 11.710938 C 41.460938 10.230469 41.449219 8.902344 41.417969 7.730469 C 41.417969 6.53125 41.402344 5.558594 41.375 4.816406 C 41.34375 4.140625 41.164062 3.675781 40.839844 3.429688 C 40.515625 3.183594 40.191406 2.984375 39.867188 2.828125 L 39.910156 2.597656 C 40.074219 2.625 40.332031 2.65625 40.691406 2.691406 C 41.078125 2.71875 41.46875 2.75 41.855469 2.78125 C 42.277344 2.78125 42.683594 2.796875 43.070312 2.824219 L 44.820312 2.824219 C 45.207031 2.796875 45.613281 2.78125 46.035156 2.78125 C 46.453125 2.753906 46.84375 2.722656 47.199219 2.691406 C 47.589844 2.660156 47.863281 2.632812 48.027344 2.597656 L 48.070312 2.828125 C 47.714844 2.984375 47.375 3.183594 47.050781 3.429688 C 46.757812 3.675781 46.597656 4.140625 46.5625 4.816406 C 46.535156 5.558594 46.5 6.53125 46.464844 7.730469 L 46.464844 21.746094 C 46.464844 25.109375 47.292969 27.589844 48.945312 29.195312 C 50.597656 30.796875 53.042969 31.597656 56.28125 31.597656 C 57.21875 31.597656 58.289062 31.492188 59.488281 31.273438 C 60.6875 31.027344 61.804688 30.535156 62.839844 29.792969 C 63.90625 29.054688 64.800781 28.007812 65.511719 26.648438 C 66.257812 25.292969 66.628906 23.488281 66.628906 21.238281 C 66.628906 18.800781 66.613281 16.71875 66.585938 14.992188 C 66.585938 13.234375 66.570312 11.742188 66.539062 10.507812 C 66.539062 9.242188 66.523438 8.164062 66.496094 7.269531 C 66.464844 6.375 66.433594 5.558594 66.398438 4.816406 C 66.367188 4.140625 66.191406 3.675781 65.863281 3.429688 C 65.539062 3.183594 65.214844 2.984375 64.894531 2.828125 L 64.9375 2.597656 C 65.292969 2.660156 65.699219 2.722656 66.152344 2.78125 C 66.605469 2.8125 67.027344 2.824219 67.414062 2.824219 C 67.769531 2.824219 68.175781 2.8125 68.628906 2.78125 C 69.117188 2.722656 69.535156 2.660156 69.894531 2.597656 Z M 105.179688 11.292969 L 104.886719 11.386719 C 103.753906 9.042969 102.132812 7.175781 100.027344 5.789062 C 97.953125 4.402344 95.347656 3.707031 92.207031 3.707031 C 90.457031 3.707031 88.789062 4.0625 87.203125 4.769531 C 85.613281 5.449219 84.222656 6.421875 83.023438 7.683594 C 81.859375 8.917969 80.917969 10.414062 80.207031 12.171875 C 79.492188 13.929688 79.136719 15.871094 79.136719 18 C 79.136719 20.128906 79.492188 22.070312 80.207031 23.828125 C 80.917969 25.585938 81.859375 27.097656 83.023438 28.359375 C 84.222656 29.59375 85.613281 30.550781 87.203125 31.226562 C 88.789062 31.90625 90.457031 32.246094 92.207031 32.246094 C 95.316406 32.246094 97.839844 31.78125 99.785156 30.859375 C 101.761719 29.902344 103.429688 28.453125 104.789062 26.511719 L 105.082031 26.601562 L 104.984375 29.5625 C 104.238281 30.300781 103.378906 30.964844 102.410156 31.550781 C 101.4375 32.105469 100.382812 32.585938 99.25 32.984375 C 98.148438 33.355469 97 33.632812 95.800781 33.816406 C 94.601562 34.035156 93.40625 34.140625 92.207031 34.140625 C 89.710938 34.140625 87.332031 33.757812 85.0625 32.984375 C 82.796875 32.214844 80.804688 31.136719 79.089844 29.746094 C 77.371094 28.328125 76.011719 26.632812 75.007812 24.660156 C 74.003906 22.65625 73.5 20.4375 73.5 18 C 73.5 15.5625 74.003906 13.359375 75.007812 11.386719 C 76.011719 9.382812 77.371094 7.667969 79.089844 6.25 C 80.804688 4.832031 82.796875 3.753906 85.0625 3.011719 C 87.332031 2.242188 89.710938 1.855469 92.207031 1.855469 C 93.40625 1.855469 94.601562 1.949219 95.800781 2.136719 C 97 2.320312 98.148438 2.613281 99.25 3.011719 C 100.382812 3.382812 101.4375 3.863281 102.410156 4.449219 C 103.378906 5.003906 104.238281 5.648438 104.984375 6.390625 Z M 156.4375 33.355469 C 156.273438 33.328125 156 33.296875 155.613281 33.265625 C 155.257812 33.265625 154.867188 33.25 154.445312 33.222656 C 154.023438 33.222656 153.617188 33.207031 153.230469 33.179688 L 150.316406 33.179688 C 149.929688 33.207031 149.539062 33.238281 149.148438 33.269531 C 148.792969 33.300781 148.519531 33.332031 148.324219 33.363281 L 148.28125 33.179688 C 148.605469 33.023438 148.929688 32.824219 149.253906 32.578125 C 149.574219 32.332031 149.753906 31.867188 149.785156 31.1875 C 149.816406 30.449219 149.828125 29.679688 149.828125 28.875 C 149.859375 28.074219 149.875 27.164062 149.875 26.148438 L 149.875 9.820312 C 149.875 8.800781 149.859375 7.910156 149.828125 7.136719 C 149.828125 6.335938 149.816406 5.566406 149.785156 4.824219 C 149.757812 4.148438 149.578125 3.683594 149.253906 3.4375 C 148.929688 3.160156 148.605469 2.945312 148.28125 2.789062 L 148.324219 2.605469 C 148.519531 2.667969 148.792969 2.710938 149.148438 2.742188 C 149.539062 2.742188 149.929688 2.757812 150.316406 2.785156 C 150.738281 2.8125 151.140625 2.828125 151.53125 2.828125 L 153.230469 2.828125 C 153.621094 2.800781 154.023438 2.785156 154.445312 2.785156 C 154.867188 2.757812 155.257812 2.726562 155.613281 2.695312 C 156 2.664062 156.273438 2.632812 156.4375 2.601562 L 156.480469 2.785156 C 156.125 2.941406 155.785156 3.15625 155.460938 3.433594 C 155.171875 3.679688 155.007812 4.144531 154.976562 4.820312 C 154.945312 5.5625 154.914062 6.332031 154.878906 7.132812 L 154.878906 28.875 C 154.90625 29.675781 154.941406 30.445312 154.976562 31.1875 C 155.003906 31.863281 155.167969 32.328125 155.460938 32.574219 C 155.785156 32.820312 156.125 33.019531 156.480469 33.175781 Z M 156.4375 33.355469 "/>
</g>
</g>
</svg>
