<svg xmlns="http://www.w3.org/2000/svg" xmlns:xlink="http://www.w3.org/1999/xlink" viewBox="0 0 167 34" version="1.1">
<g id="surface1">
<path style=" stroke:none;fill-rule:evenodd;fill:white;fill-opacity:1;" d="M 150.179688 0.65625 L 166.480469 0.65625 L 166.480469 3.253906 C 166.007812 3.09375 165.511719 3.011719 165.011719 3.011719 L 155.640625 3.011719 L 155.640625 15.148438 L 164.757812 15.148438 C 165.414062 15.148438 165.996094 15.078125 166.480469 14.953125 L 166.480469 17.542969 C 166.066406 17.445312 165.5 17.394531 164.792969 17.394531 L 155.640625 17.394531 L 155.640625 29.945312 L 164.734375 29.945312 C 165.230469 29.945312 165.824219 29.875 166.480469 29.714844 L 166.480469 32.507812 L 150.203125 32.507812 C 150.332031 32.015625 150.398438 31.511719 150.398438 31.003906 L 150.398438 2.195312 C 150.398438 1.566406 150.324219 1.042969 150.179688 0.65625 Z M 146.40625 8.921875 L 141.695312 8.886719 C 141.464844 6.238281 139.945312 3.675781 136.609375 3.207031 C 129.460938 2.5625 127.445312 10.414062 127.625 16.15625 C 127.808594 21.691406 128.695312 30.203125 136.074219 30.203125 C 139.171875 30.203125 142.144531 27.019531 142.046875 24.339844 L 146.40625 24.300781 C 146.089844 29.835938 139.742188 33.042969 136.71875 33.152344 C 126.390625 33.503906 122.066406 26.621094 121.847656 16.800781 C 121.652344 7.902344 125.296875 0 135.503906 0 C 144.242188 0.121094 145.929688 5.292969 146.40625 8.921875 Z M 72.941406 28.890625 L 76.0625 26.28125 C 77.6875 28.964844 79.023438 30.1875 82.25 30.1875 C 85.527344 30.1875 88.285156 28.199219 88.285156 24.679688 C 88.285156 22.941406 87.582031 21.523438 86.183594 20.453125 C 85.554688 19.957031 83.949219 19.09375 81.425781 17.894531 C 77.652344 16.085938 73.972656 13.730469 73.972656 8.996094 C 73.972656 3.023438 79.046875 0.390625 84.398438 0.195312 C 87.566406 0.0742188 91.5 1.820312 93.089844 3.789062 L 89.921875 6.226562 C 89.359375 5.171875 88.519531 4.289062 87.492188 3.675781 C 86.464844 3.058594 85.292969 2.734375 84.097656 2.730469 C 80.054688 2.730469 76.851562 7.417969 80.199219 10.644531 C 81.050781 11.472656 82.785156 12.492188 85.433594 13.703125 C 89.65625 15.683594 93.261719 18.050781 93.261719 23.28125 C 93.261719 25.089844 92.789062 26.777344 91.851562 28.320312 C 89.972656 31.425781 86.828125 32.980469 82.433594 32.980469 C 77.382812 32.980469 76.390625 31.828125 72.941406 28.890625 Z M 28.488281 0.65625 L 44.777344 0.65625 L 44.777344 3.253906 C 44.304688 3.09375 43.808594 3.011719 43.308594 3.011719 L 33.941406 3.011719 L 33.941406 15.148438 L 43.054688 15.148438 C 43.710938 15.148438 44.292969 15.078125 44.777344 14.953125 L 44.777344 17.542969 C 44.367188 17.445312 43.796875 17.394531 43.105469 17.394531 L 33.941406 17.394531 L 33.941406 29.945312 L 43.03125 29.945312 C 43.527344 29.945312 44.125 29.875 44.777344 29.714844 L 44.777344 32.507812 L 28.515625 32.507812 C 28.632812 32.015625 28.695312 31.511719 28.695312 31.003906 L 28.695312 2.195312 C 28.695312 1.566406 28.621094 1.042969 28.488281 0.65625 Z M 0 0.65625 L 5.921875 0.65625 L 5.921875 0.949219 C 5.921875 1.214844 6.007812 1.566406 6.15625 2.015625 L 14.503906 27.15625 L 23.074219 1.90625 C 23.207031 1.480469 23.28125 1.070312 23.28125 0.65625 L 26.160156 0.65625 C 25.867188 1.164062 25.648438 1.617188 25.515625 2.015625 L 15.730469 31.210938 C 15.632812 31.488281 15.550781 31.925781 15.476562 32.507812 L 10.621094 32.507812 C 10.546875 32.066406 10.4375 31.632812 10.292969 31.210938 L 0.703125 2.246094 C 0.484375 1.710938 0.25 1.183594 0.0117188 0.65625 Z M 62.914062 17.261719 C 66.796875 16.496094 69.773438 13.523438 69.773438 9.273438 C 69.773438 3.703125 65.113281 0.65625 59.890625 0.65625 L 50.351562 0.65625 C 50.484375 1.140625 50.558594 1.652344 50.558594 2.183594 L 50.558594 30.976562 C 50.558594 31.597656 50.484375 32.117188 50.351562 32.507812 L 56.03125 32.507812 C 55.894531 32.007812 55.824219 31.496094 55.824219 30.976562 L 55.824219 17.746094 L 57.644531 17.941406 L 67.164062 32.507812 L 72.878906 32.507812 Z M 61.929688 14.835938 C 60.898438 15.5625 59.660156 15.925781 58.242188 15.925781 L 55.8125 15.925781 L 55.8125 2.976562 L 57.984375 2.976562 C 59.84375 2.976562 61.289062 3.4375 62.320312 4.359375 C 63.726562 5.632812 64.445312 7.359375 64.445312 9.519531 C 64.445312 11.847656 63.605469 13.621094 61.929688 14.835938 M 120.902344 31.183594 L 110.292969 1.710938 C 110.175781 1.371094 110.105469 1.015625 110.085938 0.65625 L 105.496094 0.65625 C 105.496094 1.03125 105.4375 1.433594 105.289062 1.832031 L 95.007812 31.183594 C 94.875 31.609375 94.65625 32.046875 94.367188 32.507812 L 97.328125 32.507812 C 97.316406 32.023438 97.375 31.574219 97.511719 31.183594 L 100.554688 22.53125 L 112.269531 22.53125 L 115.28125 31.1875 C 115.4375 31.65625 115.511719 32.09375 115.511719 32.507812 L 121.652344 32.507812 C 121.300781 32.011719 121.046875 31.5625 120.902344 31.183594 Z M 101.359375 20.1875 L 106.308594 5.800781 L 111.398438 20.1875 Z M 101.359375 20.1875 "/>
</g>
</svg>
