<svg xmlns="http://www.w3.org/2000/svg" xmlns:xlink="http://www.w3.org/1999/xlink" viewBox="0 0 208 34" version="1.1">
<g id="surface1">
<path style=" stroke:none;fill-rule:evenodd;fill:rgb(100%,100%,100%);fill-opacity:1;" d="M 17.128906 30.453125 C 9.890625 30.453125 3.710938 23.886719 3.710938 16.726562 C 3.710938 9.589844 9.761719 2.894531 17.078125 2.894531 C 21.886719 2.894531 25.351562 5.222656 28.167969 8.867188 L 31.710938 8.867188 C 30.648438 6.953125 29.511719 5.195312 27.78125 3.824219 C 24.808594 1.421875 20.957031 0 17.128906 0 C 7.953125 0 0.480469 7.574219 0.480469 16.699219 C 0.480469 25.851562 8.054688 33.347656 17.183594 33.347656 C 20.90625 33.347656 24.550781 31.980469 27.472656 29.675781 C 29.308594 28.203125 30.597656 26.289062 31.839844 24.324219 L 28.300781 24.324219 C 25.503906 27.972656 21.9375 30.453125 17.128906 30.453125 Z M 53.839844 13.003906 C 51.617188 10.132812 48.589844 8.324219 44.84375 8.324219 C 38.121094 8.324219 32.589844 13.78125 32.589844 20.5 C 32.589844 27.222656 38.148438 32.726562 44.84375 32.726562 C 48.746094 32.726562 51.460938 31.097656 53.839844 28.101562 L 53.839844 32.183594 L 56.761719 32.183594 L 56.761719 8.890625 L 53.839844 8.890625 Z M 44.6875 30.039062 C 39.542969 30.039062 35.484375 25.566406 35.484375 20.527344 C 35.484375 15.511719 39.519531 11.011719 44.6875 11.011719 C 49.832031 11.011719 53.839844 15.511719 53.839844 20.527344 C 53.839844 25.566406 49.804688 30.039062 44.6875 30.039062 Z M 60.300781 32.183594 L 63.429688 32.183594 L 63.429688 0.671875 L 60.300781 0.671875 Z M 75.246094 28.488281 L 67.332031 8.890625 L 64.230469 8.890625 L 73.71875 32.183594 L 76.871094 32.183594 L 86.335938 8.890625 L 83.285156 8.890625 Z M 87.628906 32.183594 L 90.753906 32.183594 L 90.753906 8.890625 L 87.628906 8.890625 Z M 87.628906 5.894531 L 90.753906 5.894531 L 90.753906 0.671875 L 87.628906 0.671875 Z M 104.222656 8.324219 C 101.277344 8.324219 99.183594 9.875 97.246094 11.941406 L 97.246094 8.890625 L 94.347656 8.890625 L 94.347656 32.183594 L 97.425781 32.183594 L 97.425781 17.992188 C 97.398438 14.242188 100.5 11.011719 104.273438 11.011719 C 109.003906 11.011719 111.382812 15.121094 111.382812 19.363281 L 111.382812 32.183594 L 114.277344 32.183594 L 114.277344 19.363281 C 114.277344 13.3125 110.738281 8.324219 104.222656 8.324219 Z M 143.3125 0.671875 L 129.09375 18.742188 L 129.09375 0.671875 L 126.015625 0.671875 L 126.015625 32.183594 L 129.09375 32.183594 L 129.09375 23.523438 L 133.125 18.507812 L 143.390625 32.183594 L 147.292969 32.183594 L 135.089844 16.027344 L 147.292969 0.671875 Z M 148.429688 32.183594 L 151.480469 32.183594 L 151.480469 0.671875 L 148.429688 0.671875 Z M 176.738281 14.761719 C 174.617188 10.804688 170.378906 8.324219 165.90625 8.324219 C 159.234375 8.324219 153.597656 13.882812 153.597656 20.550781 C 153.597656 27.269531 159.285156 32.726562 165.960938 32.726562 C 169.136719 32.726562 172.265625 31.460938 174.566406 29.261719 C 175.964844 27.945312 176.789062 26.289062 177.539062 24.558594 L 174.257812 24.558594 C 172.601562 27.789062 169.679688 30.039062 165.902344 30.039062 C 163.605469 30.039062 161.355469 29.105469 159.648438 27.53125 C 157.890625 25.929688 157.113281 23.960938 156.777344 21.636719 L 178.261719 21.636719 C 178.265625 19.207031 177.925781 16.878906 176.738281 14.761719 Z M 156.882812 18.949219 C 157.816406 14.582031 161.253906 11.011719 165.960938 11.011719 C 169.914062 11.011719 174.152344 13.441406 175.085938 18.949219 Z M 180.539062 32.183594 L 183.613281 32.183594 L 183.613281 8.890625 L 180.539062 8.890625 Z M 180.539062 5.996094 L 183.613281 5.996094 L 183.613281 0.671875 L 180.539062 0.671875 Z M 197.136719 8.324219 C 194.136719 8.324219 192.042969 9.875 190.078125 11.941406 L 190.078125 8.890625 L 187.128906 8.890625 L 187.128906 32.183594 L 190.230469 32.183594 L 190.230469 17.992188 C 190.207031 14.21875 193.386719 11.011719 197.1875 11.011719 C 201.890625 11.011719 204.375 15.121094 204.375 19.363281 L 204.375 32.183594 L 207.269531 32.183594 L 207.269531 19.363281 C 207.269531 13.3125 203.675781 8.324219 197.136719 8.324219 Z M 197.136719 8.324219 "/>
</g>
</svg>
