<svg viewBox="0 0 92 38" xmlns="http://www.w3.org/2000/svg" xmlns:xlink="http://www.w3.org/1999/xlink" version="1.1">
    <defs>
    <clipPath id="clip1">
        <path d="M 0.480469 0 L 91.480469 0 L 91.480469 38 L 0.480469 38 Z M 0.480469 0 "/>
    </clipPath>
    </defs>
    <g id="surface1">
    <g clip-path="url(#clip1)" clip-rule="nonzero">
    <path style=" stroke:none;fill-rule:nonzero;fill:rgb(100%,100%,100%);fill-opacity:1;" d="M 86.8125 36.867188 L 73.332031 0.03125 L 73.324219 0.0078125 L 73.054688 0.0078125 L 70.28125 7.578125 L 65.226562 21.359375 L 65.214844 21.347656 C 63.460938 19.8125 60.992188 18.855469 57.878906 18.496094 L 56.929688 18.398438 L 57.871094 18.28125 C 63.003906 17.363281 66.453125 14.148438 66.453125 10.273438 C 66.453125 4.957031 61.417969 1.246094 54.199219 1.246094 L 39.1875 1.246094 L 39.1875 1.515625 L 43.550781 1.515625 L 43.550781 28.980469 L 32.953125 0.03125 L 32.945312 0.0078125 L 32.679688 0.0078125 L 29.902344 7.578125 L 19.195312 36.773438 L 19.128906 36.78125 C 18.945312 36.804688 18.765625 36.820312 18.585938 36.835938 C 18.316406 36.855469 18.046875 36.867188 17.777344 36.867188 L 6.960938 36.867188 L 27.527344 1.515625 L 27.679688 1.25 L 2.523438 1.25 L 2.523438 12.1875 L 2.792969 12.1875 C 2.839844 6.859375 5.964844 1.515625 12.871094 1.515625 L 21.203125 1.515625 L 0.480469 37.132812 L 28.398438 37.132812 L 28.398438 26.65625 L 28.132812 26.65625 C 28.09375 31.296875 25.445312 35.707031 19.675781 36.703125 L 19.492188 36.734375 L 23.886719 24.753906 L 36.1875 24.753906 L 40.621094 36.867188 L 36.25 36.867188 L 36.25 37.132812 L 53.414062 37.132812 L 53.414062 36.867188 L 49.023438 36.867188 L 49.023438 18.59375 L 54.089844 18.59375 C 59.25 18.59375 62.207031 20.882812 62.207031 24.867188 L 62.207031 28.109375 C 62.207031 28.464844 62.230469 28.988281 62.257812 29.425781 L 62.257812 29.441406 L 59.535156 36.867188 L 55.976562 36.867188 L 55.976562 37.132812 L 63.339844 37.132812 L 63.339844 36.867188 L 59.820312 36.867188 L 62.300781 30.105469 C 62.308594 30.167969 62.308594 30.207031 62.308594 30.207031 L 62.378906 30.816406 L 62.445312 31.222656 C 62.859375 33.714844 63.820312 35.546875 65.300781 36.667969 L 65.511719 36.824219 C 66.636719 37.597656 68.035156 37.992188 69.667969 37.992188 C 71.835938 37.992188 73.277344 37.457031 74.46875 36.195312 L 74.3125 36.050781 C 73.214844 37.054688 72.292969 37.464844 71.140625 37.464844 C 69.171875 37.464844 68.140625 35.09375 68.140625 32.761719 L 68.140625 28.21875 C 68.152344 27.09375 67.976562 25.972656 67.617188 24.902344 L 67.566406 24.761719 L 67.566406 24.757812 L 76.566406 24.757812 L 81 36.871094 L 76.625 36.871094 L 76.625 37.132812 L 91.480469 37.132812 L 91.480469 36.871094 Z M 23.984375 24.488281 L 30.042969 7.964844 L 36.09375 24.488281 Z M 49.027344 18.328125 L 49.027344 1.515625 L 52.894531 1.515625 C 58.0625 1.515625 60.789062 4.566406 60.789062 10.328125 C 60.789062 16.460938 59.222656 18.328125 54.089844 18.328125 Z M 67.460938 24.488281 L 67.4375 24.425781 C 67.035156 23.457031 66.453125 22.574219 65.71875 21.824219 L 65.46875 21.574219 L 65.441406 21.550781 L 70.417969 7.964844 L 76.464844 24.488281 Z M 67.460938 24.488281 "/>
    </g>
    </g>
</svg>