<svg xmlns="http://www.w3.org/2000/svg" xmlns:xlink="http://www.w3.org/1999/xlink" viewBox="0 0 195 32" version="1.1">
<defs>
<clipPath id="clip1">
  <path d="M 0.480469 0 L 194.480469 0 L 194.480469 32 L 0.480469 32 Z M 0.480469 0 "/>
</clipPath>
</defs>
<g id="surface1">
<g clip-path="url(#clip1)" clip-rule="nonzero">
<path style="fill-rule:evenodd;fill:rgb(100%,100%,100%);fill-opacity:1;stroke-width:1.02419;stroke-linecap:butt;stroke-linejoin:miter;stroke:rgb(100%,100%,100%);stroke-opacity:1;stroke-miterlimit:2.613;" d="M 0.480469 0.902344 L 3.414062 4.207031 L 3.414062 28.410156 L 1.242188 31.578125 L 14.550781 31.597656 L 12.152344 28.683594 L 11.902344 19.96875 L 24.734375 20.039062 C 28.625 18.742188 32.625 15.980469 32.816406 10.398438 C 32.753906 4.992188 29.453125 1.519531 25.617188 0.832031 Z M 11.425781 2.449219 L 11.425781 17.996094 L 21.273438 18.070312 C 23.511719 16.261719 25.210938 14.878906 25.144531 10.542969 C 25.113281 7.003906 24.363281 3.921875 21.070312 2.449219 Z M 38.976562 0.726562 L 41.90625 4.03125 L 41.90625 28.234375 L 39.734375 31.402344 L 53.042969 31.421875 L 50.644531 28.507812 L 50.394531 19.792969 L 50.449219 19.792969 L 64.199219 31.519531 L 75.609375 31.425781 L 65.195312 22.417969 L 56.5 22.417969 L 53.4375 19.808594 L 63.226562 19.863281 C 67.117188 18.566406 71.117188 15.804688 71.308594 10.222656 C 71.25 4.816406 67.945312 1.34375 64.109375 0.65625 Z M 49.917969 2.273438 L 49.917969 17.820312 L 59.765625 17.890625 C 62.007812 16.085938 63.703125 14.703125 63.636719 10.363281 C 63.605469 6.828125 62.859375 3.742188 59.5625 2.273438 Z M 86.59375 0.691406 L 98.070312 0.691406 L 113.007812 28.410156 C 113.65625 30.550781 115.589844 30.285156 116.878906 31.226562 L 102.414062 31.226562 L 104.589844 30.546875 L 104.453125 28.480469 L 100.71875 22.5 L 88.019531 22.570312 L 85.304688 28.34375 C 85.214844 28.996094 84.511719 29.496094 85.03125 30.3125 L 86.050781 31.296875 L 79.804688 31.15625 L 82.523438 30.3125 L 92.773438 8.710938 L 92.773438 7.234375 L 88.441406 1.453125 Z M 88.824219 20.597656 L 94.097656 10.613281 L 99.589844 20.542969 Z M 164.195312 0.75 L 175.671875 0.75 L 190.609375 28.472656 C 191.257812 30.613281 193.191406 30.347656 194.480469 31.285156 L 180.015625 31.285156 L 182.191406 30.605469 L 182.054688 28.539062 L 178.320312 22.5625 L 165.621094 22.632812 L 162.90625 28.402344 C 162.816406 29.058594 162.113281 29.554688 162.632812 30.371094 L 163.652344 31.355469 L 157.40625 31.214844 L 160.121094 30.371094 L 170.375 8.773438 L 170.375 7.292969 L 166.042969 1.515625 Z M 166.425781 20.660156 L 171.699219 10.671875 L 177.191406 20.601562 Z M 120.847656 0.402344 L 141.292969 0.515625 C 147.875 2.058594 152.0625 6.078125 153.363281 13.09375 L 153.308594 18.566406 C 152.109375 24.820312 148.175781 29.132812 141.238281 31.316406 L 120.738281 31.371094 L 120.738281 30.710938 C 123.851562 30.476562 124.101562 30.121094 124.109375 28.269531 L 124.109375 3.335938 C 124.074219 1.96875 123.800781 1.117188 120.792969 1.023438 Z M 132.46875 2.535156 L 132.449219 29.511719 C 135.144531 29.523438 137.484375 29.773438 138.804688 29.101562 C 141.800781 27.734375 143.191406 25.632812 143.320312 23.660156 L 143.246094 7.730469 C 143.246094 5.183594 140.480469 3.382812 138.886719 2.914062 C 137.742188 2.492188 135.464844 2.472656 132.46875 2.535156 Z M 132.46875 2.535156 "/>
</g>
</g>
</svg>
